<?xml version="1.0" encoding="UTF-8" standalone="no"?>
<svg
   xmlns:dc="http://purl.org/dc/elements/1.1/"
   xmlns:cc="http://creativecommons.org/ns#"
   xmlns:rdf="http://www.w3.org/1999/02/22-rdf-syntax-ns#"
   xmlns:svg="http://www.w3.org/2000/svg"
   xmlns="http://www.w3.org/2000/svg"
   xmlns:xlink="http://www.w3.org/1999/xlink"
   xmlns:sodipodi="http://sodipodi.sourceforge.net/DTD/sodipodi-0.dtd"
   xmlns:inkscape="http://www.inkscape.org/namespaces/inkscape"
   width="297mm"
   height="210mm"
   id="svg6697"
   version="1.1"
   inkscape:version="0.91 r"
   sodipodi:docname="b02.svg">
  <metadata
     id="metadata7173">
    <rdf:RDF>
      <cc:Work
         rdf:about="">
        <dc:format>image/svg+xml</dc:format>
        <dc:type
           rdf:resource="http://purl.org/dc/dcmitype/StillImage" />
        <dc:title />
      </cc:Work>
    </rdf:RDF>
  </metadata>
  <defs
     id="defs7171" />
  <sodipodi:namedview
     pagecolor="#ffffff"
     bordercolor="#666666"
     borderopacity="1"
     objecttolerance="10"
     gridtolerance="10"
     guidetolerance="10"
     inkscape:pageopacity="0"
     inkscape:pageshadow="2"
     inkscape:window-width="1920"
     inkscape:window-height="1056"
     id="namedview7169"
     showgrid="false"
     inkscape:zoom="1.7941506"
     inkscape:cx="193.77"
     inkscape:cy="224.5431"
     inkscape:window-x="0"
     inkscape:window-y="24"
     inkscape:window-maximized="1"
     inkscape:current-layer="svg6697" />
  <a
     id="a4429"
     xlink:href="https://creativecommons.org/licenses/by-nc/4.0/">
    <rect
       y="613.52246"
       x="30.585001"
       height="21"
       width="60"
       id="rect4427"
       style="fill:#ff00ff;fill-opacity:1;stroke:none;stroke-width:3;stroke-linecap:round;stroke-miterlimit:4;stroke-dasharray:none;stroke-dashoffset:0;stroke-opacity:0.50196078" />
  </a>
  <a
     id="a4400"
     xlink:href="https://faironnerie-abc.xyz">
    <rect
       y="417.08255"
       x="210.45892"
       height="16"
       width="250"
       id="rect4398"
       style="fill:#ff00ff;fill-opacity:1;stroke:none;stroke-width:3;stroke-linecap:round;stroke-miterlimit:4;stroke-dasharray:none;stroke-dashoffset:0;stroke-opacity:0.50196078" />
  </a>
  <text
     x="526.17328"
     y="714"
     font-size="11.25"
     id="text6703"
     style="font-style:normal;font-variant:normal;font-weight:normal;font-stretch:normal;font-size:11.25px;line-height:125%;font-family:Courier;-inkscape-font-specification:'Courier, Normal';text-align:center;writing-mode:lr;text-anchor:middle;"
     sodipodi:linespacing="125%">
    <tspan
       sodipodi:role="line"
       id="tspan25654">ii</tspan>
  </text>
  <text
     text-anchor="start"
     font-family="Courier"
     font-weight="bold"
     font-size="22.5"
     transform="translate(30 82.5)"
     id="text6705"
     style="-inkscape-font-specification:'Courier, Bold';font-family:Courier;font-weight:bold;font-style:normal;font-stretch:normal;font-variant:normal;font-size:22.5px;text-anchor:start;text-align:start;writing-mode:lr;line-height:125%;"
     sodipodi:linespacing="125%">
    <tspan
       sodipodi:role="line"
       id="tspan7177">À propos</tspan>
  </text>
  <line
     x1="30"
     y1="92.500008"
     x2="1022"
     y2="92.500008"
     id="line6707"
     style="stroke:#000000" />
  <flowRoot
     xml:space="preserve"
     id="flowRoot7179"
     style="font-style:normal;font-variant:normal;font-weight:normal;font-stretch:normal;font-size:15px;line-height:125%;font-family:Courier;-inkscape-font-specification:'Courier, Normal';text-align:start;letter-spacing:0px;word-spacing:0px;writing-mode:lr-tb;text-anchor:start;fill:#000000;fill-opacity:1;stroke:none;stroke-width:1px;stroke-linecap:butt;stroke-linejoin:miter;stroke-opacity:1"
     transform="translate(0,36.796861)"><flowRegion
       id="flowRegion7181"><rect
         id="rect7183"
         width="992"
         height="200"
         x="30"
         y="125"
         style="font-style:normal;font-variant:normal;font-weight:normal;font-stretch:normal;font-size:15px;line-height:125%;font-family:Courier;-inkscape-font-specification:'Courier, Normal';text-align:start;writing-mode:lr-tb;text-anchor:start" /></flowRegion><flowPara
       id="flowPara7225">Les cabanes de plage appartiennent au paysage urbain du Havre. Porteuses d’un imaginaire individuel et collectif fort, elles peuplent chaque année la ligne d’horizon dessinée par la mer pendant la saison estivale.</flowPara><flowPara
       id="flowPara7227" /><flowPara
       id="flowPara7229">Le designer graphique néerlandais Karel Martens a imaginé de parer de couleurs la blancheur uniforme de cette architecture de plage. Une composition chromatique subtile, conçue comme une sorte de chorégraphie de peinture, célébrant l’unité par la diversité.</flowPara><flowPara
       id="flowPara7231" /><flowPara
       id="flowPara7233">Karel Martens, né aux Pays-Bas, est l’un des designers graphiques les plus reconnus dans le monde. Ses réalisations couvrent l’ensemble des échelles (timbre-poste, carte téléphonique, revues et livres, signalétique urbaine, interventions sur les bâtiments).</flowPara></flowRoot>  <flowRoot
     style="font-style:normal;font-variant:normal;font-weight:normal;font-stretch:normal;font-size:15px;line-height:125%;font-family:Courier;-inkscape-font-specification:'Courier, Normal';text-align:start;letter-spacing:0px;word-spacing:0px;writing-mode:lr-tb;text-anchor:start;fill:#000000;fill-opacity:1;stroke:none;stroke-width:1px;stroke-linecap:butt;stroke-linejoin:miter;stroke-opacity:1"
     id="flowRoot7235"
     xml:space="preserve"
     transform="translate(0,290.52937)"><flowRegion
       id="flowRegion7237"><rect
         style="font-style:normal;font-variant:normal;font-weight:normal;font-stretch:normal;font-size:15px;line-height:125%;font-family:Courier;-inkscape-font-specification:'Courier, Normal';text-align:start;writing-mode:lr-tb;text-anchor:start"
         y="125"
         x="30"
         height="150"
         width="992"
         id="rect7239" /></flowRegion><flowPara
       id="flowPara9734">La Faironnerie ABC (<flowSpan
   style="fill:#007ec6;fill-opacity:1"
   id="flowSpan4340">https://faironnerie-abc.xyz/</flowSpan>) a contribué à ce projet en développant l'algorithme qui détermine les couleurs des cabanes. En partant du décret de François I<flowSpan
   style="font-size:64.99999762%;baseline-shift:super"
   id="flowSpan9742">er</flowSpan> qui proclame la création du port du Havre, l'algorithme calcule une empreinte unique de ce texte sous forme d'une suite de couleurs d'apparence aléatoire. Il utilise des techniques issues de l'informatique et de la cryptographie.</flowPara><flowPara
       id="flowPara9736" /><flowPara
       id="flowPara9738">Le code informatique utilisé pour calculer les couleurs et pour générer ce document est libre et disponible sur le site de la faironnerie.</flowPara><flowPara
       id="flowPara9740" /></flowRoot>  <text
     xml:space="preserve"
     style="font-style:normal;font-variant:normal;font-weight:normal;font-stretch:normal;font-size:15px;line-height:125%;font-family:Courier;-inkscape-font-specification:'Courier, Normal';text-align:start;letter-spacing:0px;word-spacing:0px;writing-mode:lr-tb;text-anchor:start;fill:#000000;fill-opacity:1;stroke:none;stroke-width:1px;stroke-linecap:butt;stroke-linejoin:miter;stroke-opacity:1"
     x="103.47274"
     y="634.26752"
     id="text3380"
     sodipodi:linespacing="125%"><tspan
       sodipodi:role="line"
       id="tspan3384"
       x="103.47274"
       y="634.26752">Karel Martens &amp; Faironnerie ABC</tspan></text>
  <g
     transform="matrix(0.49689038,0,0,0.49684633,-58.26206,539.08384)"
     id="g325"
     inkscape:export-filename="/mnt/hgfs/Bov/Documents/Work/2007/cc/identity/srr buttons/big/by-nc.png"
     inkscape:export-xdpi="300.23013"
     inkscape:export-ydpi="300.23013">
    <path
       inkscape:connector-curvature="0"
       id="path3817_3_"
       nodetypes="ccccccc"
       d="m 182.23535,150.26416 114.06396,0.20264 c 1.59375,0 3.01758,-0.23633 3.01758,3.18018 l -0.13965,37.56689 -119.82031,0 0,-37.70605 c 0,-1.68507 0.16309,-3.24366 2.87842,-3.24366 z"
       style="fill:#aab2ab" />
    <g
       id="g5908_3_"
       transform="matrix(0.872921,0,0,0.872921,50.12536,143.2144)">
      <path
         inkscape:connector-curvature="0"
         id="path5906_3_"
         cx="296.35416"
         ry="22.939548"
         cy="264.3577"
         type="arc"
         rx="22.939548"
         d="m 187.20946,30.09433 c 0.006,8.68024 -7.02786,15.72153 -15.70808,15.72711 -8.68022,0.005 -15.72206,-7.02786 -15.7271,-15.70807 0,-0.0067 0,-0.01233 0,-0.01904 -0.005,-8.68076 7.02785,-15.72205 15.70808,-15.72708 8.68132,-0.005 15.72206,7.02786 15.7271,15.70807 0,0.0062 0,0.0123 0,0.01901 z"
         style="fill:#ffffff" />
      <g
         id="g5706_3_"
         transform="translate(-289.6157,99.0653)">
        <path
           inkscape:connector-curvature="0"
           id="path5708_3_"
           d="m 473.88458,-81.77313 c 3.48541,3.48538 5.22839,7.75336 5.22839,12.80215 0,5.04941 -1.71283,9.27203 -5.13837,12.66794 -3.63531,3.57602 -7.93176,5.36377 -12.88943,5.36377 -4.8978,0 -9.11987,-1.77264 -12.66513,-5.31958 -3.54581,-3.54526 -5.31842,-7.78299 -5.31842,-12.71213 0,-4.92856 1.77261,-9.19595 5.31842,-12.80215 3.4552,-3.48709 7.67728,-5.22952 12.66513,-5.22952 5.04825,-1e-5 9.314,1.74243 12.79941,5.22952 z m -23.11798,2.3443 c -2.94678,2.97638 -4.41956,6.46344 -4.41956,10.46234 0,3.99835 1.45825,7.45523 4.37421,10.37119 2.91656,2.91595 6.38852,4.37424 10.41705,4.37424 4.02856,0 7.53021,-1.47226 10.50659,-4.41898 2.82587,-2.73587 4.23938,-6.17706 4.23938,-10.32645 0,-4.11804 -1.43646,-7.61295 -4.30768,-10.48416 -2.87061,-2.87067 -6.34985,-4.30655 -10.43829,-4.30655 -4.08837,0 -7.54638,1.44314 -10.3717,4.32837 z m 7.75446,8.7037 c -0.45029,-0.98224 -1.12433,-1.47281 -2.02322,-1.47281 -1.58914,0 -2.38345,1.07007 -2.38345,3.20853 0,2.13956 0.79431,3.20908 2.38345,3.20908 1.04935,0 1.79892,-0.52078 2.24863,-1.56454 l 2.20279,1.17297 c -1.04993,1.86548 -2.62509,2.79849 -4.72549,2.79849 -1.61993,0 -2.91766,-0.4967 -3.89209,-1.48956 -0.97607,-0.99344 -1.46271,-2.36276 -1.46271,-4.108 0,-1.715 0.50229,-3.07706 1.50748,-4.08502 1.00516,-1.00854 2.25705,-1.51251 3.75781,-1.51251 2.22012,0 3.80984,0.87427 4.77081,2.62228 l -2.38401,1.22109 z m 10.36334,0 c -0.45087,-0.98224 -1.11145,-1.47281 -1.98236,-1.47281 -1.62109,0 -2.43213,1.07007 -2.43213,3.20853 0,2.13956 0.81104,3.20908 2.43213,3.20908 1.05103,0 1.78717,-0.52078 2.20721,-1.56454 l 2.25201,1.17297 c -1.04822,1.86548 -2.62115,2.79849 -4.71765,2.79849 -1.61774,0 -2.91266,-0.4967 -3.88647,-1.48956 -0.97217,-0.99344 -1.45941,-2.36276 -1.45941,-4.108 0,-1.715 0.49451,-3.07706 1.48291,-4.08502 0.98779,-1.00854 2.24524,-1.51251 3.77344,-1.51251 2.21619,0 3.80371,0.87427 4.76135,2.62228 l -2.43103,1.22109 z" />
      </g>
    </g>
    <path
       inkscape:connector-curvature="0"
       d="m 297.29639,149.82227 -116.229,0 c -1.24658,0 -2.26123,1.01367 -2.26123,2.26025 l 0,39.49609 c 0,0.28174 0.229,0.51025 0.51074,0.51025 l 119.72949,0 c 0.28174,0 0.51074,-0.22852 0.51074,-0.51025 l 0,-39.49609 c 0,-1.24658 -1.01416,-2.26025 -2.26074,-2.26025 z m -116.22901,1.0205 116.229,0 c 0.68359,0 1.23926,0.55615 1.23926,1.23975 0,0 0,15.88525 0,27.38135 l -83.07373,0 c -3.04492,5.50586 -8.91113,9.24365 -15.64355,9.24365 -6.73535,0 -12.6001,-3.73486 -15.64355,-9.24365 l -4.34717,0 c 0,-11.49609 0,-27.38135 0,-27.38135 0,-0.68359 0.55615,-1.23975 1.23974,-1.23975 z"
       id="path332" />
    <g
       enable-background="new    "
       id="g334">
      <path
         inkscape:connector-curvature="0"
         d="m 239.17822,182.77734 c 0.31787,0 0.60742,0.0283 0.86914,0.084 0.26172,0.0557 0.48633,0.14746 0.67383,0.27539 0.18652,0.12695 0.33203,0.29688 0.43457,0.50781 0.10254,0.21191 0.1543,0.47266 0.1543,0.78418 0,0.33594 -0.0762,0.61523 -0.22949,0.83887 -0.15234,0.22461 -0.37891,0.40723 -0.67773,0.55078 0.41211,0.11816 0.71973,0.3252 0.92285,0.62109 0.20312,0.29589 0.30469,0.65234 0.30469,1.06934 0,0.33594 -0.0654,0.62695 -0.19629,0.87305 -0.13086,0.24512 -0.30762,0.44629 -0.52832,0.60156 -0.22168,0.15625 -0.47461,0.27148 -0.75781,0.3457 -0.28418,0.0752 -0.5752,0.1123 -0.875,0.1123 l -3.23633,0 0,-6.66406 3.14159,0 0,10e-6 z m -0.18701,2.69532 c 0.26123,0 0.47656,-0.0625 0.64502,-0.18652 0.16797,-0.12402 0.25195,-0.3252 0.25195,-0.60449 0,-0.15527 -0.0283,-0.2832 -0.084,-0.38184 -0.0566,-0.0996 -0.13086,-0.17676 -0.22461,-0.2334 -0.0933,-0.0557 -0.20068,-0.0947 -0.32227,-0.11621 -0.12159,-0.0215 -0.24756,-0.0322 -0.37842,-0.0322 l -1.37354,0 0,1.55469 1.48585,0 z m 0.0855,2.82812 c 0.14355,0 0.28027,-0.0137 0.41162,-0.042 0.13037,-0.0283 0.24658,-0.0752 0.34619,-0.13965 0.0996,-0.0654 0.17871,-0.1543 0.23828,-0.2666 0.0596,-0.11133 0.0889,-0.25488 0.0889,-0.42871 0,-0.3418 -0.0967,-0.58594 -0.29004,-0.73242 -0.19336,-0.14551 -0.44873,-0.21875 -0.7666,-0.21875 l -1.59961,0 0,1.82812 1.57129,0 0,0 z"
         id="path336"
         style="fill:#ffffff" />
      <path
         inkscape:connector-curvature="0"
         d="m 241.88916,182.77734 1.64355,0 1.56055,2.63184 1.55078,-2.63184 1.63379,0 -2.47363,4.10645 0,2.55762 -1.46875,0 0,-2.59473 -2.44629,-4.06934 z"
         id="path338"
         style="fill:#ffffff" />
    </g>
    <g
       enable-background="new    "
       id="g340">
      <path
         inkscape:connector-curvature="0"
         d="m 265.78076,182.77734 2.78418,4.4707 0.0156,0 0,-4.4707 1.375,0 0,6.66406 -1.46582,0 -2.77344,-4.46191 -0.0186,0 0,4.46191 -1.375,0 0,-6.66406 1.45801,0 z"
         id="path342"
         style="fill:#ffffff" />
      <path
         inkscape:connector-curvature="0"
         d="m 275.51904,184.55273 c -0.0869,-0.14062 -0.19629,-0.26367 -0.32715,-0.36914 -0.13086,-0.10547 -0.27832,-0.18848 -0.44336,-0.24707 -0.16504,-0.0596 -0.33789,-0.0889 -0.51758,-0.0889 -0.33008,0 -0.61035,0.0635 -0.84082,0.19141 -0.23047,0.12695 -0.41699,0.29785 -0.55957,0.5127 -0.14355,0.21484 -0.24805,0.45898 -0.31348,0.73242 -0.0654,0.27344 -0.0977,0.55664 -0.0977,0.84863 0,0.28027 0.0322,0.55273 0.0977,0.81641 0.0654,0.26465 0.16992,0.50293 0.31348,0.71387 0.14258,0.21191 0.3291,0.38086 0.55957,0.50879 0.23047,0.12793 0.51074,0.19141 0.84082,0.19141 0.44727,0 0.79785,-0.13672 1.0498,-0.41113 0.25195,-0.27344 0.40625,-0.63477 0.46191,-1.08301 l 1.41895,0 c -0.0371,0.41699 -0.13379,0.79395 -0.28906,1.12988 -0.15527,0.33691 -0.36133,0.62305 -0.61621,0.86035 -0.25488,0.2373 -0.55371,0.41797 -0.89648,0.54297 -0.3418,0.125 -0.71875,0.1875 -1.12891,0.1875 -0.51074,0 -0.96973,-0.0889 -1.37793,-0.2666 -0.40723,-0.17676 -0.75195,-0.42188 -1.03223,-0.73242 -0.28125,-0.31152 -0.49609,-0.67773 -0.64551,-1.09766 -0.14941,-0.4209 -0.22461,-0.87305 -0.22461,-1.35938 0,-0.49805 0.0752,-0.95996 0.22461,-1.38672 0.14941,-0.42676 0.36426,-0.79883 0.64551,-1.11621 0.28027,-0.31738 0.625,-0.56641 1.03223,-0.74707 0.4082,-0.18066 0.86719,-0.27051 1.37793,-0.27051 0.36719,0 0.71387,0.0527 1.04102,0.15918 0.32617,0.10547 0.61914,0.25977 0.87695,0.46289 0.25879,0.20215 0.47168,0.45312 0.63965,0.75195 0.16797,0.29883 0.27344,0.6416 0.31738,1.02734 l -1.41895,0 c -0.0244,-0.16796 -0.081,-0.32226 -0.16796,-0.46191 z"
         id="path344"
         style="fill:#ffffff" />
    </g>
    <g
       id="g6379_1_"
       transform="matrix(1.146822,0,0,1.146822,457.9375,166.153)">
      <path
         inkscape:connector-curvature="0"
         id="path6381_1_"
         cx="475.97119"
         ry="29.209877"
         cy="252.08646"
         type="arc"
         rx="29.209877"
         d="m -154.14499,-1.09436 c 0.003,4.82693 -3.90601,8.74188 -8.73337,8.7457 -4.82652,0.00299 -8.7419,-3.90686 -8.7453,-8.73294 0,-0.0051 0,-0.00894 0,-0.01276 -0.003,-4.82739 3.90601,-8.74234 8.73251,-8.74615 4.82739,-0.00299 8.74277,3.90686 8.74615,8.73294 1e-5,0.00427 1e-5,0.00894 1e-5,0.01321 z"
         style="fill:#ffffff" />
      <path
         inkscape:connector-curvature="0"
         id="path6383_1_"
         d="m -162.89709,-11.26941 c 2.85181,0 5.26337,0.98352 7.23297,2.95016 1.9696,1.96747 2.95483,4.37604 2.95483,7.22488 0,2.84882 -0.9682,5.23141 -2.90375,7.14822 -2.05475,2.01813 -4.48248,3.02637 -7.28406,3.02637 -2.76834,0 -5.1535,-1.00055 -7.15718,-3.00168 -2.00366,-2.00027 -3.00507,-4.39182 -3.00507,-7.17291 0,-2.78156 1.0014,-5.19012 3.00507,-7.22488 1.95258,-1.96664 4.3386,-2.95016 7.15719,-2.95016 z m -7.87333,7.44116 c -0.30315,0.8588 -0.45471,1.76993 -0.45471,2.73389 0,2.25528 0.82259,4.2049 2.46945,5.85046 1.64688,1.64435 3.60797,2.46735 5.88412,2.46735 2.27533,0 4.25259,-0.83069 5.93353,-2.49332 0.56287,-0.54327 1.02695,-1.13678 1.39056,-1.77969 l -3.83618,-1.70776 c -0.25974,1.2905 -1.4093,2.16205 -2.79987,2.26422 l 0,1.56897 -1.1683,0 0,-1.56897 c -1.14192,-0.01276 -2.24551,-0.47983 -3.08853,-1.21811 l 1.40077,-1.41312 c 0.67528,0.63522 1.35054,0.9205 2.2719,0.9205 0.59695,0 1.25858,-0.23376 1.25858,-1.01163 0,-0.27548 -0.1073,-0.46707 -0.27502,-0.61099 l -0.96991,-0.43256 -1.20834,-0.53732 c -0.59692,-0.26654 -1.10274,-0.49094 -1.6111,-0.71744 l -5.19695,-2.31448 z m 7.89887,-5.60992 c -2.30937,0 -4.26195,0.81366 -5.85773,2.4422 -0.43513,0.43857 -0.81236,0.89667 -1.13425,1.37439 l 3.89067,1.73203 c 0.35085,-1.07932 1.3761,-1.73416 2.62105,-1.80652 l 0,-1.56897 1.1683,0 0,1.56897 c 0.80469,0.03873 1.68689,0.25928 2.5563,0.93286 l -1.33691,1.37436 c -0.49304,-0.34955 -1.11551,-0.59607 -1.73883,-0.59607 -0.5058,0 -1.21941,0.155 -1.21941,0.78979 0,0.0975 0.0315,0.18268 0.0911,0.25845 l 1.30113,0.57904 0.88049,0.39258 c 0.56287,0.25162 1.10104,0.49005 1.63409,0.72763 l 5.21313,2.32086 c 0.17285,-0.6825 0.25885,-1.40887 0.25885,-2.1778 0,-2.32428 -0.81491,-4.2905 -2.44476,-5.90161 -1.61363,-1.62853 -3.57472,-2.44219 -5.88325,-2.44219 z" />
    </g>
    <g
       id="g349">
      <circle
         cx="242.56226"
         cy="165.13574"
         r="10.8064"
         id="circle351"
         style="fill:#ffffff" />
      <g
         id="g353">
        <path
           inkscape:connector-curvature="0"
           d="m 245.68994,162.00928 c 0,-0.4165 -0.33789,-0.75391 -0.75391,-0.75391 l -4.77246,0 c -0.41602,0 -0.75391,0.3374 -0.75391,0.75391 l 0,4.77295 1.33105,0 0,5.65186 3.61719,0 0,-5.65186 1.33203,0 0,-4.77295 1e-5,0 z"
           id="path355" />
        <circle
           cx="242.5498"
           cy="158.99463"
           r="1.63232"
           id="circle357" />
      </g>
      <path
         inkscape:connector-curvature="0"
         d="m 242.53467,153.22949 c -3.23145,0 -5.96826,1.12744 -8.20752,3.38379 -2.29785,2.3335 -3.44629,5.0957 -3.44629,8.28467 0,3.18897 1.14844,5.93164 3.44629,8.22656 2.29785,2.29443 5.03418,3.44189 8.20752,3.44189 3.21289,0 5.99805,-1.15625 8.35352,-3.47119 2.2207,-2.19727 3.33008,-4.92969 3.33008,-8.19727 0,-3.26758 -1.12891,-6.02881 -3.3877,-8.28467 -2.25879,-2.25634 -5.02442,-3.38378 -8.2959,-3.38378 z m 0.0293,2.09961 c 2.64844,0 4.89746,0.93408 6.74707,2.80078 1.87012,1.84766 2.80469,4.10352 2.80469,6.76807 0,2.68359 -0.91504,4.91064 -2.74609,6.68018 -1.92773,1.90625 -4.19629,2.85889 -6.80566,2.85889 -2.60937,0 -4.8584,-0.94336 -6.74658,-2.82959 -1.88965,-1.88672 -2.8335,-4.12305 -2.8335,-6.70947 0,-2.58691 0.9541,-4.84277 2.8623,-6.76807 1.83057,-1.86671 4.07031,-2.80079 6.71777,-2.80079 z"
         id="path359"
         style="clip-rule:evenodd;fill-rule:evenodd" />
    </g>
  </g>
</svg>
