<?xml version="1.0" encoding="UTF-8" standalone="no"?>
<svg
   xmlns:dc="http://purl.org/dc/elements/1.1/"
   xmlns:cc="http://creativecommons.org/ns#"
   xmlns:rdf="http://www.w3.org/1999/02/22-rdf-syntax-ns#"
   xmlns:svg="http://www.w3.org/2000/svg"
   xmlns="http://www.w3.org/2000/svg"
   xmlns:xlink="http://www.w3.org/1999/xlink"
   xmlns:sodipodi="http://sodipodi.sourceforge.net/DTD/sodipodi-0.dtd"
   xmlns:inkscape="http://www.inkscape.org/namespaces/inkscape"
   width="297mm"
   height="210mm"
   id="svg6697"
   version="1.1"
   inkscape:version="0.92.1 unknown"
   sodipodi:docname="b02.svg">
  <metadata
     id="metadata7173">
    <rdf:RDF>
      <cc:Work
         rdf:about="">
        <dc:format>image/svg+xml</dc:format>
        <dc:type
           rdf:resource="http://purl.org/dc/dcmitype/StillImage" />
        <dc:title />
      </cc:Work>
    </rdf:RDF>
  </metadata>
  <defs
     id="defs7171" />
  <sodipodi:namedview
     pagecolor="#ffffff"
     bordercolor="#666666"
     borderopacity="1"
     objecttolerance="10"
     gridtolerance="10"
     guidetolerance="10"
     inkscape:pageopacity="0"
     inkscape:pageshadow="2"
     inkscape:window-width="1920"
     inkscape:window-height="1056"
     id="namedview7169"
     showgrid="false"
     inkscape:zoom="1.7941506"
     inkscape:cx="196.64747"
     inkscape:cy="558.96319"
     inkscape:window-x="0"
     inkscape:window-y="24"
     inkscape:window-maximized="1"
     inkscape:current-layer="svg6697" />
  <a
     id="a4429"
     xlink:href="https://creativecommons.org/licenses/by-nc/4.0/">
    <rect
       y="654.42395"
       x="32.624001"
       height="22.4"
       width="64"
       id="rect4427"
       style="fill:#ff00ff;fill-opacity:1;stroke:none;stroke-width:3.20000005;stroke-linecap:round;stroke-miterlimit:4;stroke-dasharray:none;stroke-dashoffset:0;stroke-opacity:0.50196078" />
  </a>
  <a
     id="a4400"
     xlink:href="https://faironnerie-abc.xyz">
    <rect
       y="444.88806"
       x="224.48952"
       height="17.066668"
       width="266.66666"
       id="rect4398"
       style="fill:#ff00ff;fill-opacity:1;stroke:none;stroke-width:3.20000005;stroke-linecap:round;stroke-miterlimit:4;stroke-dasharray:none;stroke-dashoffset:0;stroke-opacity:0.50196078" />
  </a>
  <text
     x="561.25153"
     y="761.59998"
     font-size="11.25"
     id="text6703"
     style="font-style:normal;font-variant:normal;font-weight:normal;font-stretch:normal;font-size:12px;line-height:0%;font-family:Courier;-inkscape-font-specification:'Courier, Normal';text-align:center;writing-mode:lr-tb;text-anchor:middle;stroke-width:1.06666672">
    <tspan
       sodipodi:role="line"
       id="tspan25654"
       x="561.25153"
       y="761.59998"
       style="font-size:12px;line-height:1.25;stroke-width:1.06666672">ii</tspan>
  </text>
  <text
     font-weight="bold"
     font-size="22.5"
     id="text6705"
     style="font-style:normal;font-variant:normal;font-weight:bold;font-stretch:normal;font-size:24px;line-height:0%;font-family:Courier;-inkscape-font-specification:'Courier, Bold';text-align:start;writing-mode:lr-tb;text-anchor:start;stroke-width:1.06666672"
     x="32"
     y="88">
    <tspan
       sodipodi:role="line"
       id="tspan7177"
       x="32"
       y="88"
       style="font-size:24px;line-height:1.25;stroke-width:1.06666672">À propos</tspan>
  </text>
  <line
     x1="32"
     y1="98.666672"
     x2="1090.1333"
     y2="98.666672"
     id="line6707"
     style="stroke:#000000;stroke-width:1.06666672" />
  <flowRoot
     xml:space="preserve"
     id="flowRoot7179"
     style="font-style:normal;font-variant:normal;font-weight:normal;font-stretch:normal;font-size:12.80000019px;line-height:0.01%;font-family:Courier;-inkscape-font-specification:'Courier, Normal';text-align:start;letter-spacing:0px;word-spacing:0px;writing-mode:lr-tb;text-anchor:start;fill:#000000;fill-opacity:1;stroke:none;stroke-width:1.06666672px;stroke-linecap:butt;stroke-linejoin:miter;stroke-opacity:1"><flowRegion
       id="flowRegion7181"
       style="stroke-width:1.06666672px"><rect
         id="rect7183"
         width="1058.1333"
         height="213.33333"
         x="32"
         y="172.58331"
         style="font-style:normal;font-variant:normal;font-weight:normal;font-stretch:normal;font-size:16px;line-height:125%;font-family:Courier;-inkscape-font-specification:'Courier, Normal';text-align:start;writing-mode:lr-tb;text-anchor:start;stroke-width:1.13777781px" /></flowRegion><flowPara
       id="flowPara7225"
       style="font-size:16px;line-height:1.25;stroke-width:1.06666672px">Les cabanes de plage appartiennent au paysage urbain du Havre. Porteuses d’un imaginaire individuel et collectif fort, elles peuplent chaque année la ligne d’horizon dessinée par la mer pendant la saison estivale.</flowPara><flowPara
       id="flowPara7227"
       style="font-size:16px;line-height:1.25;stroke-width:1.06666672px"> </flowPara><flowPara
       id="flowPara7229"
       style="font-size:16px;line-height:1.25;stroke-width:1.06666672px">Le designer graphique néerlandais Karel Martens a imaginé de parer de couleurs la blancheur uniforme de cette architecture de plage. Une composition chromatique subtile, conçue comme une sorte de chorégraphie de peinture, célébrant l’unité par la diversité.</flowPara><flowPara
       id="flowPara7231"
       style="font-size:16px;line-height:1.25;stroke-width:1.06666672px"> </flowPara><flowPara
       id="flowPara7233"
       style="font-size:16px;line-height:1.25;stroke-width:1.06666672px">Karel Martens, né aux Pays-Bas, est l’un des designers graphiques les plus reconnus dans le monde. Ses réalisations couvrent l’ensemble des échelles (timbre-poste, carte téléphonique, revues et livres, signalétique urbaine, interventions sur les bâtiments).</flowPara></flowRoot>  <flowRoot
     style="font-style:normal;font-variant:normal;font-weight:normal;font-stretch:normal;font-size:12.80000019px;line-height:0.01%;font-family:Courier;-inkscape-font-specification:'Courier, Normal';text-align:start;letter-spacing:0px;word-spacing:0px;writing-mode:lr-tb;text-anchor:start;fill:#000000;fill-opacity:1;stroke:none;stroke-width:1.06666672px;stroke-linecap:butt;stroke-linejoin:miter;stroke-opacity:1"
     id="flowRoot7235"
     xml:space="preserve"><flowRegion
       id="flowRegion7237"
       style="stroke-width:1.06666672px"><rect
         style="font-style:normal;font-variant:normal;font-weight:normal;font-stretch:normal;font-size:16px;line-height:125%;font-family:Courier;-inkscape-font-specification:'Courier, Normal';text-align:start;writing-mode:lr-tb;text-anchor:start;stroke-width:1.13777781px"
         y="443.23132"
         x="32"
         height="160"
         width="1058.1333"
         id="rect7239" /></flowRegion><flowPara
       id="flowPara9734"
       style="font-size:16px;line-height:1.25;stroke-width:1.06666672px">La Faironnerie ABC (<flowSpan
   style="fill:#007ec6;fill-opacity:1;stroke-width:1.06666672px"
   id="flowSpan4340">https://faironnerie-abc.xyz/</flowSpan>) a contribué à ce projet en développant l'algorithme qui détermine les couleurs des cabanes. En partant du décret de François I<flowSpan
   style="font-size:10.39999962px;baseline-shift:super;stroke-width:1.06666672px"
   id="flowSpan9742">er</flowSpan> qui proclame la création du port du Havre, l'algorithme calcule une empreinte unique de ce texte sous forme d'une suite de couleurs d'apparence aléatoire. Il utilise des techniques issues de l'informatique et de la cryptographie.</flowPara><flowPara
       id="flowPara9736"
       style="font-size:16px;line-height:1.25;stroke-width:1.06666672px"> </flowPara><flowPara
       id="flowPara9738"
       style="font-size:16px;line-height:1.25;stroke-width:1.06666672px">Le code informatique utilisé pour calculer les couleurs et pour générer ce document est libre et disponible sur le site de la faironnerie.</flowPara><flowPara
       id="flowPara9740"
       style="font-size:16px;line-height:1.25;stroke-width:1.06666672px"> </flowPara></flowRoot>  <text
     xml:space="preserve"
     style="font-style:normal;font-variant:normal;font-weight:normal;font-stretch:normal;font-size:12.80000019px;line-height:0%;font-family:Courier;-inkscape-font-specification:'Courier, Normal';text-align:start;letter-spacing:0px;word-spacing:0px;writing-mode:lr-tb;text-anchor:start;fill:#000000;fill-opacity:1;stroke:none;stroke-width:1.06666672px;stroke-linecap:butt;stroke-linejoin:miter;stroke-opacity:1"
     x="110.37093"
     y="676.552"
     id="text3380"><tspan
       sodipodi:role="line"
       id="tspan3384"
       x="110.37093"
       y="676.552"
       style="font-size:16px;line-height:1.25;stroke-width:1.06666672px">Karel Martens &amp; Faironnerie ABC</tspan></text>
  <g
     transform="matrix(0.49689038,0,0,0.49684633,-62.146197,575.02276)"
     id="g325"
     inkscape:export-filename="/mnt/hgfs/Bov/Documents/Work/2007/cc/identity/srr buttons/big/by-nc.png"
     inkscape:export-xdpi="300.23013"
     inkscape:export-ydpi="300.23013">
    <path
       inkscape:connector-curvature="0"
       id="path3817_3_"
       nodetypes="ccccccc"
       d="m 194.38437,160.28177 121.66823,0.21615 c 1.7,0 3.21875,-0.25209 3.21875,3.39219 l -0.14896,40.07135 H 191.31406 v -40.21979 c 0,-1.7974 0.17396,-3.4599 3.07031,-3.4599 z"
       style="fill:#aab2ab;stroke-width:1.06666672" />
    <g
       id="g5908_3_"
       transform="matrix(0.872921,0,0,0.872921,53.467051,152.76203)">
      <path
         inkscape:connector-curvature="0"
         id="path5906_3_"
         cx="296.35416"
         ry="22.939548"
         cy="264.3577"
         type="arc"
         rx="22.939548"
         d="m 199.69009,32.100619 c 0.006,9.258922 -7.49638,16.769632 -16.75528,16.775584 -9.25891,0.0053 -16.7702,-7.496384 -16.77558,-16.755275 0,-0.0071 0,-0.01315 0,-0.02031 -0.005,-9.259478 7.49638,-16.770187 16.75529,-16.775552 9.26007,-0.0053 16.77019,7.496384 16.77557,16.755274 0,0.0066 0,0.01312 0,0.02028 z"
         style="fill:#ffffff;stroke-width:1.06666672" />
      <g
         id="g5706_3_"
         transform="translate(-308.92341,105.66965)">
        <path
           inkscape:connector-curvature="0"
           id="path5708_3_"
           d="m 505.47689,-87.224672 c 3.71777,3.717739 5.57694,8.270251 5.57694,13.655627 0,5.386037 -1.82701,9.890165 -5.48092,13.512469 -3.87767,3.814421 -8.46055,5.721355 -13.74873,5.721355 -5.22432,0 -9.72786,-1.890816 -13.50947,-5.674219 -3.7822,-3.781611 -5.67298,-8.301856 -5.67298,-13.559605 0,-5.257131 1.89078,-9.809014 5.67298,-13.655627 3.68555,-3.719563 8.1891,-5.578155 13.50947,-5.578155 5.3848,-1e-5 9.93493,1.858592 13.65271,5.578155 z m -24.65918,2.500587 c -3.14324,3.174805 -4.7142,6.894336 -4.7142,11.159829 0,4.264907 1.55547,7.952245 4.66582,11.062603 3.111,3.110346 6.81442,4.665856 11.11152,4.665856 4.29713,0 8.03223,-1.570411 11.20703,-4.713579 3.01426,-2.918261 4.52201,-6.588864 4.52201,-11.01488 0,-4.392576 -1.53223,-8.12048 -4.59486,-11.183104 -3.06198,-3.062048 -6.77317,-4.593653 -11.13418,-4.593653 -4.36092,0 -8.04947,1.539349 -11.06314,4.616928 z m 8.27142,9.283946 c -0.48031,-1.047722 -1.19928,-1.570997 -2.1581,-1.570997 -1.69508,0 -2.54235,1.141408 -2.54235,3.422432 0,2.282197 0.84727,3.423019 2.54235,3.423019 1.11931,0 1.91885,-0.555499 2.39854,-1.668843 l 2.34964,1.251168 c -1.11992,1.989845 -2.8001,2.985056 -5.04052,2.985056 -1.72793,0 -3.11217,-0.529813 -4.15156,-1.588864 -1.04115,-1.059669 -1.56023,-2.520277 -1.56023,-4.381867 0,-1.829333 0.53578,-3.282197 1.60798,-4.357354 1.07217,-1.075776 2.40752,-1.613344 4.00833,-1.613344 2.36813,0 4.06383,0.932554 5.08886,2.797098 z m 11.05423,0 c -0.48093,-1.047722 -1.18555,-1.570997 -2.11452,-1.570997 -1.72916,0 -2.59427,1.141408 -2.59427,3.422432 0,2.282197 0.86511,3.423019 2.59427,3.423019 1.1211,0 1.90632,-0.555499 2.35436,-1.668843 l 2.40214,1.251168 c -1.1181,1.989845 -2.79589,2.985056 -5.03216,2.985056 -1.72559,0 -3.10683,-0.529813 -4.14556,-1.588864 -1.03699,-1.059669 -1.55671,-2.520277 -1.55671,-4.381867 0,-1.829333 0.52748,-3.282197 1.58177,-4.357354 1.05365,-1.075776 2.39493,-1.613344 4.02501,-1.613344 2.36393,0 4.05729,0.932554 5.07877,2.797098 z"
           style="stroke-width:1.06666672" />
      </g>
    </g>
    <path
       inkscape:connector-curvature="0"
       d="m 317.11615,159.81042 h -123.9776 c -1.32969,0 -2.41198,1.08125 -2.41198,2.41093 v 42.12917 c 0,0.30052 0.24427,0.54426 0.54479,0.54426 h 127.71146 c 0.30052,0 0.54479,-0.24375 0.54479,-0.54426 v -42.12917 c 0,-1.32968 -1.08178,-2.41093 -2.41146,-2.41093 z m -123.97761,1.08853 h 123.9776 c 0.72916,0 1.32188,0.59323 1.32188,1.3224 0,0 0,16.94427 0,29.20678 h -88.61198 c -3.24792,5.87292 -9.50521,9.85989 -16.68646,9.85989 -7.18437,0 -13.4401,-3.98385 -16.68645,-9.85989 h -4.63698 c 0,-12.2625 0,-29.20678 0,-29.20678 0,-0.72916 0.59323,-1.3224 1.32239,-1.3224 z"
       id="path332"
       style="stroke-width:1.06666672" />
    <g
       enable-background="new    "
       id="g334">
      <path
         inkscape:connector-curvature="0"
         d="m 255.12343,194.9625 c 0.33907,0 0.64792,0.0302 0.92709,0.0896 0.27917,0.0594 0.51875,0.15729 0.71875,0.29375 0.19895,0.13541 0.35416,0.31667 0.46354,0.54166 0.10938,0.22604 0.16459,0.50417 0.16459,0.83646 0,0.35833 -0.0813,0.65624 -0.24479,0.89479 -0.1625,0.23959 -0.40417,0.43438 -0.72291,0.5875 0.43958,0.12604 0.76771,0.34688 0.98437,0.6625 0.21666,0.31561 0.325,0.69583 0.325,1.14063 0,0.35833 -0.0698,0.66874 -0.20937,0.93125 -0.13959,0.26146 -0.32813,0.47604 -0.56355,0.64166 -0.23645,0.16667 -0.50625,0.28958 -0.80833,0.36875 -0.30312,0.0802 -0.61354,0.11979 -0.93333,0.11979 h -3.45208 v -7.10833 h 3.35102 v 1e-5 z m -0.19947,2.875 c 0.27864,0 0.50833,-0.0667 0.68802,-0.19895 0.17917,-0.13229 0.26875,-0.34688 0.26875,-0.64479 0,-0.16562 -0.0302,-0.30208 -0.0896,-0.4073 -0.0604,-0.10624 -0.13959,-0.18854 -0.23959,-0.24896 -0.0995,-0.0594 -0.21406,-0.10101 -0.34375,-0.12395 -0.1297,-0.0229 -0.26407,-0.0343 -0.40365,-0.0343 h -1.46511 v 1.65834 h 1.58491 z m 0.0912,3.01667 c 0.15312,0 0.29895,-0.0146 0.43906,-0.0448 0.13906,-0.0302 0.26302,-0.0802 0.36927,-0.14896 0.10624,-0.0698 0.19062,-0.16459 0.25416,-0.28438 0.0636,-0.11875 0.0948,-0.27187 0.0948,-0.45729 0,-0.36459 -0.10315,-0.625 -0.30938,-0.78125 -0.20625,-0.15521 -0.47864,-0.23333 -0.8177,-0.23333 h -1.70625 v 1.94999 h 1.67604 v 0 z"
         id="path336"
         style="fill:#ffffff;stroke-width:1.06666672" />
      <path
         inkscape:connector-curvature="0"
         d="m 258.0151,194.9625 h 1.75312 l 1.66459,2.80729 1.65417,-2.80729 h 1.74271 l -2.63854,4.38021 v 2.72813 h -1.56667 v -2.76771 z"
         id="path338"
         style="fill:#ffffff;stroke-width:1.06666672" />
    </g>
    <g
       enable-background="new    "
       id="g340">
      <path
         inkscape:connector-curvature="0"
         d="m 283.49948,194.9625 2.96979,4.76874 h 0.0166 v -4.76874 h 1.46667 v 7.10833 h -1.56355 l -2.95833,-4.75937 h -0.0198 v 4.75937 h -1.46667 v -7.10833 h 1.55521 z"
         id="path342"
         style="fill:#ffffff;stroke-width:1.06666672" />
      <path
         inkscape:connector-curvature="0"
         d="m 293.88698,196.85625 c -0.0927,-0.15 -0.20938,-0.28125 -0.34896,-0.39375 -0.13959,-0.11251 -0.29688,-0.20105 -0.47292,-0.26355 -0.17604,-0.0636 -0.36042,-0.0948 -0.55209,-0.0948 -0.35208,0 -0.65104,0.0677 -0.89687,0.20417 -0.24584,0.13541 -0.44479,0.31771 -0.59688,0.54688 -0.15312,0.22916 -0.26458,0.48958 -0.33437,0.78125 -0.0698,0.29167 -0.10422,0.59375 -0.10422,0.9052 0,0.29896 0.0344,0.58958 0.10422,0.87084 0.0698,0.28229 0.18124,0.53646 0.33437,0.76146 0.15209,0.22604 0.35104,0.40625 0.59688,0.54271 0.24583,0.13646 0.54479,0.20417 0.89687,0.20417 0.47709,0 0.85104,-0.14583 1.11979,-0.43854 0.26875,-0.29167 0.43333,-0.67709 0.4927,-1.15521 h 1.51355 c -0.0396,0.44479 -0.14271,0.84688 -0.30833,1.20521 -0.16562,0.35937 -0.38542,0.66458 -0.65729,0.9177 -0.27187,0.25312 -0.59062,0.44584 -0.95625,0.57917 -0.36458,0.13333 -0.76666,0.2 -1.20417,0.2 -0.54479,0 -1.03438,-0.0948 -1.46979,-0.28437 -0.43438,-0.18855 -0.80208,-0.45001 -1.10104,-0.78125 -0.3,-0.33229 -0.52917,-0.72291 -0.68855,-1.17084 -0.15937,-0.44896 -0.23958,-0.93125 -0.23958,-1.45 0,-0.53126 0.0802,-1.02396 0.23958,-1.47917 0.15937,-0.45521 0.38855,-0.85209 0.68855,-1.19062 0.29895,-0.33854 0.66666,-0.60418 1.10104,-0.79688 0.43541,-0.1927 0.925,-0.28854 1.46979,-0.28854 0.39167,0 0.76146,0.0562 1.11042,0.16979 0.34792,0.1125 0.66042,0.27709 0.93542,0.49375 0.27604,0.21562 0.50312,0.48333 0.68229,0.80208 0.17917,0.31875 0.29167,0.68437 0.33854,1.09583 h -1.51355 c -0.026,-0.17916 -0.0864,-0.34375 -0.17915,-0.49271 z"
         id="path344"
         style="fill:#ffffff;stroke-width:1.06666672" />
    </g>
    <g
       id="g6379_1_"
       transform="matrix(1.146822,0,0,1.146822,488.46667,177.22987)">
      <path
         inkscape:connector-curvature="0"
         id="path6381_1_"
         cx="475.97119"
         ry="29.209877"
         cy="252.08646"
         type="arc"
         rx="29.209877"
         d="m -164.42132,-1.1673173 c 0.003,5.1487253 -4.16641,9.324672 -9.3156,9.3287466 -5.14829,0.00319 -9.32469,-4.1673173 -9.32832,-9.315136 0,-0.00544 0,-0.00954 0,-0.013611 -0.003,-5.149216 4.16641,-9.3251623 9.31468,-9.3292263 5.14922,-0.0032 9.32562,4.1673169 9.32923,9.3151356 1e-5,0.00455 1e-5,0.00954 1e-5,0.014091 z"
         style="fill:#ffffff;stroke-width:1.06666672" />
      <path
         inkscape:connector-curvature="0"
         id="path6383_1_"
         d="m -173.7569,-12.020704 c 3.04193,0 5.61427,1.049088 7.71517,3.1468373 2.10091,2.0986347 3.15182,4.667776 3.15182,7.7065387 0,3.0387413 -1.03275,5.5801707 -3.09733,7.624768 -2.19174,2.152672 -4.78131,3.228128 -7.76967,3.228128 -2.95289,0 -5.49706,-1.0672533 -7.63432,-3.201792 -2.13724,-2.1336213 -3.20541,-4.684608 -3.20541,-7.651104 0,-2.9669973 1.06816,-5.536128 3.20541,-7.7065387 2.08275,-2.0977493 4.62784,-3.1468373 7.63433,-3.1468373 z m -8.39821,7.9372373 c -0.32336,0.9160534 -0.48503,1.8879254 -0.48503,2.9161494 0,2.405632 0.87743,4.4852266 2.63408,6.2404906 1.75667,1.7539734 3.8485,2.63184 6.2764,2.63184 2.42701,0 4.53609,-0.8860693 6.32909,-2.6595413 0.6004,-0.579488 1.09542,-1.2125653 1.48327,-1.898336 l -4.09193,-1.8216107 c -0.27705,1.3765334 -1.50325,2.3061867 -2.98652,2.415168 v 1.673568 h -1.24619 v -1.673568 c -1.21805,-0.013611 -2.39521,-0.5118186 -3.29443,-1.2993173 l 1.49415,-1.507328 c 0.7203,0.677568 1.44058,0.9818667 2.42336,0.9818667 0.63675,0 1.34249,-0.249344 1.34249,-1.07907203 0,-0.29384534 -0.11446,-0.498208 -0.29336,-0.65172267 l -1.03457,-0.46139733 -1.28889,-0.57314134 C -175.52991,-1.133728 -176.06945,-1.373088 -176.6117,-1.614688 Z m 8.42546,-5.9839143 c -2.46333,0 -4.54608,0.8679037 -6.24825,2.605013 -0.46414,0.467808 -0.86652,0.956448 -1.20987,1.466016 l 4.15005,1.8474987 c 0.37424,-1.1512747 1.46784,-1.8497707 2.79579,-1.9269547 v -1.673568 h 1.24619 v 1.673568 c 0.85833,0.041312 1.79935,0.2765653 2.72672,0.9950507 l -1.42604,1.465984 c -0.52591,-0.3728534 -1.18988,-0.635808 -1.85475,-0.635808 -0.53952,0 -1.30071,0.1653333 -1.30071,0.8424426 0,0.104 0.0336,0.1948587 0.0972,0.27568 l 1.38787,0.6176427 0.93919,0.418752 c 0.60039,0.2683947 1.17444,0.52272 1.74303,0.7761387 l 5.56067,2.475584 c 0.18437,-0.72800003 0.27611,-1.5027947 0.27611,-2.3229867 0,-2.479232 -0.86924,-4.5765333 -2.60775,-6.2950507 -1.7212,-1.7370986 -3.81303,-2.6050023 -6.27547,-2.6050023 z"
         style="stroke-width:1.06666672" />
    </g>
    <g
       id="g349">
      <circle
         cx="258.73306"
         cy="176.14479"
         r="11.526827"
         id="circle351"
         style="fill:#ffffff;stroke-width:1.06666672" />
      <g
         id="g353">
        <path
           inkscape:connector-curvature="0"
           d="m 262.06927,172.8099 c 0,-0.44427 -0.36042,-0.80417 -0.80417,-0.80417 h -5.09063 c -0.44375,0 -0.80417,0.35989 -0.80417,0.80417 v 5.09115 h 1.41979 v 6.02865 h 3.85834 v -6.02865 h 1.42083 v -5.09115 z"
           id="path355"
           style="stroke-width:1.06666672" />
        <circle
           cx="258.71979"
           cy="169.59427"
           r="1.7411414"
           id="circle357"
           style="stroke-width:1.06666672" />
      </g>
      <path
         inkscape:connector-curvature="0"
         d="m 258.70365,163.44479 c -3.44688,0 -6.36615,1.2026 -8.75469,3.60938 -2.45104,2.48906 -3.67604,5.43541 -3.67604,8.83698 0,3.40156 1.225,6.32708 3.67604,8.77499 2.45104,2.4474 5.36979,3.67135 8.75469,3.67135 3.42708,0 6.39792,-1.23333 8.91042,-3.7026 2.36875,-2.34375 3.55208,-5.25834 3.55208,-8.74375 0,-3.48542 -1.20417,-6.43073 -3.61354,-8.83699 -2.40938,-2.40676 -5.35938,-3.60936 -8.84896,-3.60936 z m 0.0312,2.23958 c 2.825,0 5.22396,0.99636 7.19688,2.9875 1.99479,1.97084 2.99167,4.37709 2.99167,7.21928 0,2.86249 -0.97605,5.23801 -2.92917,7.12552 -2.05624,2.03334 -4.47604,3.04948 -7.25937,3.04948 -2.78333,0 -5.18229,-1.00625 -7.19635,-3.01822 -2.01563,-2.01251 -3.0224,-4.39792 -3.0224,-7.15677 0,-2.75937 1.01771,-5.16562 3.05312,-7.21928 1.95261,-1.99115 4.34166,-2.98751 7.16562,-2.98751 z"
         id="path359"
         style="clip-rule:evenodd;fill-rule:evenodd;stroke-width:1.06666672" />
    </g>
  </g>
</svg>
